<mxfile host="65bd71144e">
    <diagram id="QWFxLKMB1layE4RUAb9i" name="第 1 页">
        <mxGraphModel dx="206.78" dy="0" grid="0" gridSize="10" guides="0" tooltips="1" connect="1" arrows="1" fold="1" page="1" pageScale="1" pageWidth="827" pageHeight="1169" background="#FFFFFF" math="0" shadow="0">
            <root>
                <mxCell id="0"/>
                <mxCell id="1" parent="0"/>
                <mxCell id="5" value="" style="edgeStyle=none;html=1;fontSize=15;strokeWidth=2;fillColor=#f5f5f5;strokeColor=#666666;" parent="1" source="3" target="4" edge="1">
                    <mxGeometry relative="1" as="geometry"/>
                </mxCell>
                <mxCell id="3" value="消息队列存在数据？" style="rhombus;whiteSpace=wrap;html=1;fontSize=15;strokeWidth=2;fillColor=#f5f5f5;fontColor=#333333;strokeColor=#666666;" parent="1" vertex="1">
                    <mxGeometry x="140" y="186" width="190" height="80" as="geometry"/>
                </mxCell>
                <mxCell id="7" value="" style="edgeStyle=none;html=1;fontSize=15;strokeWidth=2;fillColor=#f5f5f5;strokeColor=#666666;" parent="1" source="4" edge="1">
                    <mxGeometry relative="1" as="geometry">
                        <mxPoint x="235" y="426" as="targetPoint"/>
                    </mxGeometry>
                </mxCell>
                <mxCell id="4" value="进入app状态机，检测状态" style="whiteSpace=wrap;html=1;fontSize=15;strokeWidth=2;fillColor=#f5f5f5;fontColor=#333333;strokeColor=#666666;" parent="1" vertex="1">
                    <mxGeometry x="175" y="316" width="120" height="60" as="geometry"/>
                </mxCell>
                <mxCell id="9" value="" style="edgeStyle=none;html=1;fontSize=15;strokeWidth=2;fillColor=#f5f5f5;strokeColor=#666666;" parent="1" edge="1">
                    <mxGeometry relative="1" as="geometry">
                        <mxPoint x="235" y="491" as="sourcePoint"/>
                        <mxPoint x="235" y="531" as="targetPoint"/>
                    </mxGeometry>
                </mxCell>
                <mxCell id="17" value="" style="edgeStyle=none;html=1;fontSize=15;strokeWidth=2;fillColor=#f5f5f5;strokeColor=#666666;" parent="1" target="16" edge="1">
                    <mxGeometry relative="1" as="geometry">
                        <mxPoint x="295" y="461" as="sourcePoint"/>
                    </mxGeometry>
                </mxCell>
                <mxCell id="11" value="" style="edgeStyle=none;html=1;fontSize=15;strokeWidth=2;fillColor=#f5f5f5;strokeColor=#666666;" parent="1" edge="1">
                    <mxGeometry relative="1" as="geometry">
                        <mxPoint x="235" y="591" as="sourcePoint"/>
                        <mxPoint x="235" y="631" as="targetPoint"/>
                    </mxGeometry>
                </mxCell>
                <mxCell id="19" value="" style="edgeStyle=none;html=1;fontSize=15;strokeWidth=2;fillColor=#f5f5f5;strokeColor=#666666;" parent="1" target="18" edge="1">
                    <mxGeometry relative="1" as="geometry">
                        <mxPoint x="295" y="561" as="sourcePoint"/>
                    </mxGeometry>
                </mxCell>
                <mxCell id="13" value="" style="edgeStyle=none;html=1;fontSize=15;strokeWidth=2;fillColor=#f5f5f5;strokeColor=#666666;" parent="1" edge="1">
                    <mxGeometry relative="1" as="geometry">
                        <mxPoint x="235" y="691" as="sourcePoint"/>
                        <mxPoint x="235" y="731" as="targetPoint"/>
                    </mxGeometry>
                </mxCell>
                <mxCell id="21" value="" style="edgeStyle=none;html=1;fontSize=15;strokeWidth=2;fillColor=#f5f5f5;strokeColor=#666666;" parent="1" target="20" edge="1">
                    <mxGeometry relative="1" as="geometry">
                        <mxPoint x="295" y="661" as="sourcePoint"/>
                    </mxGeometry>
                </mxCell>
                <mxCell id="16" value="根据cmd分发具体命令给led_app" style="rounded=1;whiteSpace=wrap;html=1;fontSize=15;strokeWidth=2;fillColor=#f5f5f5;fontColor=#333333;strokeColor=#666666;" parent="1" vertex="1">
                    <mxGeometry x="375" y="431" width="120" height="60" as="geometry"/>
                </mxCell>
                <mxCell id="18" value="根据cmd分发具体命令给uart_app" style="rounded=1;whiteSpace=wrap;html=1;fontSize=15;strokeWidth=2;fillColor=#f5f5f5;fontColor=#333333;strokeColor=#666666;" parent="1" vertex="1">
                    <mxGeometry x="375" y="531" width="120" height="60" as="geometry"/>
                </mxCell>
                <mxCell id="20" value="&lt;span style=&quot;font-size: 15px;&quot;&gt;根据cmd分发具体命令给inet_app&lt;/span&gt;" style="rounded=1;whiteSpace=wrap;html=1;fontSize=15;strokeWidth=2;fillColor=#f5f5f5;fontColor=#333333;strokeColor=#666666;" parent="1" vertex="1">
                    <mxGeometry x="375" y="631" width="120" height="60" as="geometry"/>
                </mxCell>
                <mxCell id="24" value="" style="endArrow=none;html=1;exitX=0.5;exitY=1;exitDx=0;exitDy=0;entryX=0;entryY=0.5;entryDx=0;entryDy=0;fontSize=15;strokeWidth=2;fillColor=#f5f5f5;strokeColor=#666666;" parent="1" target="3" edge="1">
                    <mxGeometry width="50" height="50" relative="1" as="geometry">
                        <mxPoint x="235" y="786" as="sourcePoint"/>
                        <mxPoint x="80" y="316" as="targetPoint"/>
                        <Array as="points">
                            <mxPoint x="235" y="846"/>
                            <mxPoint x="80" y="846"/>
                            <mxPoint x="80" y="226"/>
                        </Array>
                    </mxGeometry>
                </mxCell>
                <mxCell id="25" value="是" style="text;html=1;align=center;verticalAlign=middle;resizable=0;points=[];autosize=1;strokeColor=#666666;fillColor=#f5f5f5;fontSize=15;strokeWidth=2;fontColor=#333333;" parent="1" vertex="1">
                    <mxGeometry x="244" y="266" width="25" height="22" as="geometry"/>
                </mxCell>
                <mxCell id="26" value="" style="endArrow=none;html=1;entryX=1;entryY=0.5;entryDx=0;entryDy=0;fontSize=15;strokeWidth=2;fillColor=#f5f5f5;strokeColor=#666666;" parent="1" target="3" edge="1">
                    <mxGeometry width="50" height="50" relative="1" as="geometry">
                        <mxPoint x="210" y="846" as="sourcePoint"/>
                        <mxPoint x="360" y="436" as="targetPoint"/>
                        <Array as="points">
                            <mxPoint x="540" y="846"/>
                            <mxPoint x="540" y="226"/>
                        </Array>
                    </mxGeometry>
                </mxCell>
                <mxCell id="30" value="控制led" style="rhombus;whiteSpace=wrap;html=1;fontSize=15;strokeWidth=2;fillColor=#f5f5f5;fontColor=#333333;strokeColor=#666666;" parent="1" vertex="1">
                    <mxGeometry x="170" y="421" width="130" height="80" as="geometry"/>
                </mxCell>
                <mxCell id="31" value="控制程序" style="rhombus;whiteSpace=wrap;html=1;fontSize=15;strokeWidth=2;fillColor=#f5f5f5;fontColor=#333333;strokeColor=#666666;" parent="1" vertex="1">
                    <mxGeometry x="170" y="721" width="130" height="80" as="geometry"/>
                </mxCell>
                <mxCell id="32" value="控制uart" style="rhombus;whiteSpace=wrap;html=1;fontSize=15;strokeWidth=2;fillColor=#f5f5f5;fontColor=#333333;strokeColor=#666666;" parent="1" vertex="1">
                    <mxGeometry x="170" y="521" width="130" height="80" as="geometry"/>
                </mxCell>
                <mxCell id="33" value="控制网络" style="rhombus;whiteSpace=wrap;html=1;fontSize=15;strokeWidth=2;fillColor=#f5f5f5;fontColor=#333333;strokeColor=#666666;" parent="1" vertex="1">
                    <mxGeometry x="170" y="621" width="130" height="80" as="geometry"/>
                </mxCell>
                <mxCell id="35" value="否" style="text;html=1;align=center;verticalAlign=middle;resizable=0;points=[];autosize=1;strokeColor=#666666;fillColor=#f5f5f5;fontSize=15;strokeWidth=2;fontColor=#333333;" parent="1" vertex="1">
                    <mxGeometry x="334" y="196" width="25" height="22" as="geometry"/>
                </mxCell>
                <mxCell id="49" value="" style="edgeStyle=none;html=1;fontSize=15;strokeWidth=2;fillColor=#f5f5f5;strokeColor=#666666;" parent="1" source="47" edge="1">
                    <mxGeometry relative="1" as="geometry">
                        <mxPoint x="840" y="360" as="targetPoint"/>
                    </mxGeometry>
                </mxCell>
                <mxCell id="47" value="循环开始？" style="rhombus;whiteSpace=wrap;html=1;fontSize=15;strokeWidth=2;fillColor=#f5f5f5;fontColor=#333333;strokeColor=#666666;" parent="1" vertex="1">
                    <mxGeometry x="760" y="230" width="160" height="90" as="geometry"/>
                </mxCell>
                <mxCell id="59" value="" style="edgeStyle=none;html=1;fontSize=15;strokeWidth=2;fillColor=#f5f5f5;strokeColor=#666666;" parent="1" source="50" target="58" edge="1">
                    <mxGeometry relative="1" as="geometry"/>
                </mxCell>
                <mxCell id="50" value="每一个灯的&lt;br&gt;状态改变？" style="rhombus;whiteSpace=wrap;html=1;fontSize=15;strokeWidth=2;fillColor=#f5f5f5;fontColor=#333333;strokeColor=#666666;" parent="1" vertex="1">
                    <mxGeometry x="760" y="360" width="160" height="80" as="geometry"/>
                </mxCell>
                <mxCell id="51" value="" style="endArrow=none;html=1;fontSize=15;strokeWidth=2;exitX=0;exitY=0.5;exitDx=0;exitDy=0;entryX=0.5;entryY=1;entryDx=0;entryDy=0;fillColor=#f5f5f5;strokeColor=#666666;" parent="1" source="50" target="58" edge="1">
                    <mxGeometry width="50" height="50" relative="1" as="geometry">
                        <mxPoint x="760" y="490" as="sourcePoint"/>
                        <mxPoint x="840" y="580" as="targetPoint"/>
                        <Array as="points">
                            <mxPoint x="720" y="400"/>
                            <mxPoint x="720" y="480"/>
                            <mxPoint x="720" y="640"/>
                            <mxPoint x="840" y="640"/>
                        </Array>
                    </mxGeometry>
                </mxCell>
                <mxCell id="52" value="是" style="text;html=1;align=center;verticalAlign=middle;resizable=0;points=[];autosize=1;strokeColor=#666666;fillColor=#f5f5f5;fontSize=15;fontColor=#333333;" parent="1" vertex="1">
                    <mxGeometry x="845" y="320" width="30" height="20" as="geometry"/>
                </mxCell>
                <mxCell id="53" value="" style="endArrow=none;html=1;fontSize=15;strokeWidth=2;entryX=1;entryY=0.5;entryDx=0;entryDy=0;fillColor=#f5f5f5;strokeColor=#666666;" parent="1" source="167" target="47" edge="1">
                    <mxGeometry width="50" height="50" relative="1" as="geometry">
                        <mxPoint x="830" y="680" as="sourcePoint"/>
                        <mxPoint x="810" y="440" as="targetPoint"/>
                        <Array as="points">
                            <mxPoint x="1040" y="695"/>
                            <mxPoint x="1040" y="275"/>
                        </Array>
                    </mxGeometry>
                </mxCell>
                <mxCell id="54" value="否" style="text;html=1;align=center;verticalAlign=middle;resizable=0;points=[];autosize=1;strokeColor=#666666;fillColor=#f5f5f5;fontSize=15;fontColor=#333333;" parent="1" vertex="1">
                    <mxGeometry x="915" y="240" width="30" height="20" as="geometry"/>
                </mxCell>
                <mxCell id="55" value="是" style="text;html=1;align=center;verticalAlign=middle;resizable=0;points=[];autosize=1;strokeColor=#666666;fillColor=#f5f5f5;fontSize=15;fontColor=#333333;" parent="1" vertex="1">
                    <mxGeometry x="850" y="440" width="30" height="20" as="geometry"/>
                </mxCell>
                <mxCell id="56" value="否" style="text;html=1;align=center;verticalAlign=middle;resizable=0;points=[];autosize=1;strokeColor=#666666;fillColor=#f5f5f5;fontSize=15;fontColor=#333333;" parent="1" vertex="1">
                    <mxGeometry x="910" y="370" width="30" height="20" as="geometry"/>
                </mxCell>
                <mxCell id="57" value="" style="endArrow=none;html=1;fontSize=15;strokeWidth=2;entryX=1;entryY=0.5;entryDx=0;entryDy=0;fillColor=#f5f5f5;strokeColor=#666666;" parent="1" target="50" edge="1">
                    <mxGeometry width="50" height="50" relative="1" as="geometry">
                        <mxPoint x="830" y="640" as="sourcePoint"/>
                        <mxPoint x="810" y="440" as="targetPoint"/>
                        <Array as="points">
                            <mxPoint x="960" y="640"/>
                            <mxPoint x="960" y="400"/>
                        </Array>
                    </mxGeometry>
                </mxCell>
                <mxCell id="58" value="控制底层改变led状况" style="whiteSpace=wrap;html=1;fontSize=15;strokeWidth=2;fillColor=#f5f5f5;fontColor=#333333;strokeColor=#666666;" parent="1" vertex="1">
                    <mxGeometry x="780" y="490" width="120" height="60" as="geometry"/>
                </mxCell>
                <mxCell id="62" value="" style="edgeStyle=none;html=1;fontSize=15;strokeWidth=2;fillColor=#f5f5f5;strokeColor=#666666;" parent="1" source="60" target="61" edge="1">
                    <mxGeometry relative="1" as="geometry"/>
                </mxCell>
                <mxCell id="60" value="led模式被设置为&lt;br&gt;呼吸?" style="rhombus;whiteSpace=wrap;html=1;fontSize=15;strokeWidth=2;fillColor=#f5f5f5;fontColor=#333333;strokeColor=#666666;" parent="1" vertex="1">
                    <mxGeometry x="1120" y="270" width="180" height="80" as="geometry"/>
                </mxCell>
                <mxCell id="66" value="" style="edgeStyle=none;html=1;fontSize=15;strokeWidth=2;fillColor=#f5f5f5;strokeColor=#666666;" parent="1" source="61" target="65" edge="1">
                    <mxGeometry relative="1" as="geometry"/>
                </mxCell>
                <mxCell id="61" value="开启的定时器，配置参数" style="whiteSpace=wrap;html=1;fontSize=15;strokeWidth=2;fillColor=#f5f5f5;fontColor=#333333;strokeColor=#666666;" parent="1" vertex="1">
                    <mxGeometry x="1150" y="390" width="120" height="60" as="geometry"/>
                </mxCell>
                <mxCell id="63" value="是" style="text;html=1;align=center;verticalAlign=middle;resizable=0;points=[];autosize=1;strokeColor=#666666;fillColor=#f5f5f5;fontSize=15;fontColor=#333333;" parent="1" vertex="1">
                    <mxGeometry x="1226" y="350" width="30" height="20" as="geometry"/>
                </mxCell>
                <mxCell id="64" value="否" style="text;html=1;align=center;verticalAlign=middle;resizable=0;points=[];autosize=1;strokeColor=#666666;fillColor=#f5f5f5;fontSize=15;fontColor=#333333;" parent="1" vertex="1">
                    <mxGeometry x="1300" y="280" width="30" height="20" as="geometry"/>
                </mxCell>
                <mxCell id="70" value="" style="edgeStyle=none;html=1;fontSize=15;strokeWidth=2;fillColor=#f5f5f5;strokeColor=#666666;" parent="1" source="65" edge="1">
                    <mxGeometry relative="1" as="geometry">
                        <mxPoint x="1210" y="640" as="targetPoint"/>
                    </mxGeometry>
                </mxCell>
                <mxCell id="65" value="led状态参数，定时翻转" style="whiteSpace=wrap;html=1;fontSize=15;strokeWidth=2;fillColor=#f5f5f5;fontColor=#333333;strokeColor=#666666;" parent="1" vertex="1">
                    <mxGeometry x="1150" y="500" width="120" height="60" as="geometry"/>
                </mxCell>
                <mxCell id="67" value="" style="endArrow=none;dashed=1;html=1;fontSize=15;strokeWidth=2;fillColor=#f5f5f5;strokeColor=#666666;" parent="1" edge="1">
                    <mxGeometry width="50" height="50" relative="1" as="geometry">
                        <mxPoint x="1080" y="200" as="sourcePoint"/>
                        <mxPoint x="1080" y="200" as="targetPoint"/>
                        <Array as="points">
                            <mxPoint x="1080" y="660"/>
                            <mxPoint x="680" y="660"/>
                            <mxPoint x="680" y="200"/>
                        </Array>
                    </mxGeometry>
                </mxCell>
                <mxCell id="68" value="" style="endArrow=none;html=1;fontSize=15;strokeWidth=2;entryX=1;entryY=0.5;entryDx=0;entryDy=0;fillColor=#f5f5f5;strokeColor=#666666;" parent="1" target="60" edge="1">
                    <mxGeometry width="50" height="50" relative="1" as="geometry">
                        <mxPoint x="1210" y="620" as="sourcePoint"/>
                        <mxPoint x="980" y="400" as="targetPoint"/>
                        <Array as="points">
                            <mxPoint x="1300" y="620"/>
                        </Array>
                    </mxGeometry>
                </mxCell>
                <mxCell id="72" value="调用结束，&lt;br&gt;等待调用" style="whiteSpace=wrap;html=1;fontSize=15;strokeWidth=2;fillColor=#f5f5f5;fontColor=#333333;strokeColor=#666666;" parent="1" vertex="1">
                    <mxGeometry x="1160" y="640" width="100" height="40" as="geometry"/>
                </mxCell>
                <mxCell id="73" value="" style="endArrow=none;html=1;fontSize=15;strokeWidth=2;entryX=0;entryY=0.5;entryDx=0;entryDy=0;fillColor=#f5f5f5;strokeColor=#666666;" parent="1" target="65" edge="1">
                    <mxGeometry width="50" height="50" relative="1" as="geometry">
                        <mxPoint x="1080" y="530" as="sourcePoint"/>
                        <mxPoint x="980" y="400" as="targetPoint"/>
                    </mxGeometry>
                </mxCell>
                <mxCell id="76" value="" style="edgeStyle=none;html=1;fontSize=15;strokeWidth=2;fillColor=#f5f5f5;strokeColor=#666666;" parent="1" source="74" edge="1">
                    <mxGeometry relative="1" as="geometry">
                        <mxPoint x="1610" y="380" as="targetPoint"/>
                    </mxGeometry>
                </mxCell>
                <mxCell id="74" value="循环开始？" style="rhombus;whiteSpace=wrap;html=1;fontSize=15;strokeWidth=2;fillColor=#f5f5f5;fontColor=#333333;strokeColor=#666666;" parent="1" vertex="1">
                    <mxGeometry x="1520" y="240" width="180" height="90" as="geometry"/>
                </mxCell>
                <mxCell id="78" value="是" style="text;html=1;align=center;verticalAlign=middle;resizable=0;points=[];autosize=1;strokeColor=#666666;fillColor=#f5f5f5;fontSize=15;fontColor=#333333;" parent="1" vertex="1">
                    <mxGeometry x="1620" y="330" width="30" height="20" as="geometry"/>
                </mxCell>
                <mxCell id="81" value="" style="edgeStyle=none;html=1;fontSize=15;strokeWidth=2;fillColor=#f5f5f5;strokeColor=#666666;" parent="1" source="79" target="80" edge="1">
                    <mxGeometry relative="1" as="geometry"/>
                </mxCell>
                <mxCell id="79" value="串口有无读事件？" style="rhombus;whiteSpace=wrap;html=1;fontSize=15;strokeWidth=2;fillColor=#f5f5f5;fontColor=#333333;strokeColor=#666666;" parent="1" vertex="1">
                    <mxGeometry x="1510" y="380" width="200" height="80" as="geometry"/>
                </mxCell>
                <mxCell id="80" value="读取数据，存入r_fifo" style="whiteSpace=wrap;html=1;fontSize=15;strokeWidth=2;fillColor=#f5f5f5;fontColor=#333333;strokeColor=#666666;" parent="1" vertex="1">
                    <mxGeometry x="1550" y="530" width="120" height="60" as="geometry"/>
                </mxCell>
                <mxCell id="82" value="有" style="text;html=1;align=center;verticalAlign=middle;resizable=0;points=[];autosize=1;strokeColor=#666666;fillColor=#f5f5f5;fontSize=15;fontColor=#333333;" parent="1" vertex="1">
                    <mxGeometry x="1620" y="470" width="30" height="20" as="geometry"/>
                </mxCell>
                <mxCell id="83" value="无" style="text;html=1;align=center;verticalAlign=middle;resizable=0;points=[];autosize=1;strokeColor=#666666;fillColor=#f5f5f5;fontSize=15;fontColor=#333333;" parent="1" vertex="1">
                    <mxGeometry x="1700" y="390" width="30" height="20" as="geometry"/>
                </mxCell>
                <mxCell id="84" value="" style="endArrow=none;html=1;fontSize=15;strokeWidth=2;entryX=1;entryY=0.5;entryDx=0;entryDy=0;exitX=0;exitY=0.5;exitDx=0;exitDy=0;fillColor=#f5f5f5;strokeColor=#666666;" parent="1" source="79" target="79" edge="1">
                    <mxGeometry width="50" height="50" relative="1" as="geometry">
                        <mxPoint x="1520" y="285" as="sourcePoint"/>
                        <mxPoint x="1690" y="490" as="targetPoint"/>
                        <Array as="points">
                            <mxPoint x="1480" y="420"/>
                            <mxPoint x="1480" y="710"/>
                            <mxPoint x="1730" y="710"/>
                            <mxPoint x="1730" y="420"/>
                        </Array>
                    </mxGeometry>
                </mxCell>
                <mxCell id="85" value="" style="endArrow=none;html=1;fontSize=15;strokeWidth=2;exitX=0.5;exitY=1;exitDx=0;exitDy=0;fillColor=#f5f5f5;strokeColor=#666666;" parent="1" source="80" edge="1">
                    <mxGeometry width="50" height="50" relative="1" as="geometry">
                        <mxPoint x="1640" y="540" as="sourcePoint"/>
                        <mxPoint x="1610" y="710" as="targetPoint"/>
                    </mxGeometry>
                </mxCell>
                <mxCell id="87" value="否" style="text;html=1;align=center;verticalAlign=middle;resizable=0;points=[];autosize=1;strokeColor=#666666;fillColor=#f5f5f5;fontSize=15;fontColor=#333333;" parent="1" vertex="1">
                    <mxGeometry x="1696" y="253" width="30" height="20" as="geometry"/>
                </mxCell>
                <mxCell id="89" value="" style="endArrow=none;html=1;fontSize=15;strokeWidth=2;entryX=1;entryY=0.5;entryDx=0;entryDy=0;fillColor=#f5f5f5;strokeColor=#666666;" parent="1" target="74" edge="1">
                    <mxGeometry width="50" height="50" relative="1" as="geometry">
                        <mxPoint x="1610" y="750" as="sourcePoint"/>
                        <mxPoint x="1690" y="490" as="targetPoint"/>
                        <Array as="points">
                            <mxPoint x="1760" y="750"/>
                            <mxPoint x="1760" y="285"/>
                        </Array>
                    </mxGeometry>
                </mxCell>
                <mxCell id="90" value="" style="ellipse;whiteSpace=wrap;html=1;aspect=fixed;fontSize=15;strokeWidth=2;fillColor=#f5f5f5;fontColor=#333333;strokeColor=#666666;" parent="1" vertex="1">
                    <mxGeometry x="1585" y="720" width="50" height="50" as="geometry"/>
                </mxCell>
                <mxCell id="91" value="线程结束" style="text;html=1;align=center;verticalAlign=middle;resizable=0;points=[];autosize=1;strokeColor=#666666;fillColor=#f5f5f5;fontSize=15;fontColor=#333333;" parent="1" vertex="1">
                    <mxGeometry x="1630" y="760" width="80" height="20" as="geometry"/>
                </mxCell>
                <mxCell id="92" value="recive_thread" style="text;html=1;align=center;verticalAlign=middle;resizable=0;points=[];autosize=1;strokeColor=#666666;fillColor=#f5f5f5;fontSize=15;fontColor=#333333;" parent="1" vertex="1">
                    <mxGeometry x="1500" y="220" width="110" height="20" as="geometry"/>
                </mxCell>
                <mxCell id="96" value="" style="edgeStyle=none;html=1;fontSize=15;strokeWidth=2;fillColor=#f5f5f5;strokeColor=#666666;" parent="1" source="94" target="95" edge="1">
                    <mxGeometry relative="1" as="geometry"/>
                </mxCell>
                <mxCell id="94" value="循环开始？" style="rhombus;whiteSpace=wrap;html=1;fontSize=15;strokeWidth=2;fillColor=#f5f5f5;fontColor=#333333;strokeColor=#666666;" parent="1" vertex="1">
                    <mxGeometry x="1840" y="245" width="170" height="85" as="geometry"/>
                </mxCell>
                <mxCell id="98" value="" style="edgeStyle=none;html=1;fontSize=15;strokeWidth=2;fillColor=#f5f5f5;strokeColor=#666666;" parent="1" source="95" target="97" edge="1">
                    <mxGeometry relative="1" as="geometry"/>
                </mxCell>
                <mxCell id="95" value="r_fifo有无数据？" style="rhombus;whiteSpace=wrap;html=1;fontSize=15;strokeWidth=2;fillColor=#f5f5f5;fontColor=#333333;strokeColor=#666666;" parent="1" vertex="1">
                    <mxGeometry x="1835" y="365.5" width="175" height="87.5" as="geometry"/>
                </mxCell>
                <mxCell id="100" value="" style="edgeStyle=none;html=1;fontSize=15;strokeWidth=2;fillColor=#f5f5f5;strokeColor=#666666;" parent="1" source="97" edge="1">
                    <mxGeometry relative="1" as="geometry">
                        <mxPoint x="1924.0987124463518" y="593.343347639485" as="targetPoint"/>
                    </mxGeometry>
                </mxCell>
                <mxCell id="97" value="读取数据，&lt;br&gt;进行hup解析" style="whiteSpace=wrap;html=1;fontSize=15;strokeWidth=2;fillColor=#f5f5f5;fontColor=#333333;strokeColor=#666666;" parent="1" vertex="1">
                    <mxGeometry x="1862.5" y="490" width="120" height="60" as="geometry"/>
                </mxCell>
                <mxCell id="102" value="" style="edgeStyle=none;html=1;fontSize=15;strokeWidth=2;fillColor=#f5f5f5;strokeColor=#666666;" parent="1" target="101" edge="1">
                    <mxGeometry relative="1" as="geometry">
                        <mxPoint x="1925" y="673" as="sourcePoint"/>
                    </mxGeometry>
                </mxCell>
                <mxCell id="99" value="解析完成？" style="rhombus;whiteSpace=wrap;html=1;fontSize=15;strokeWidth=2;fillColor=#f5f5f5;fontColor=#333333;strokeColor=#666666;" parent="1" vertex="1">
                    <mxGeometry x="1820" y="590" width="210" height="80" as="geometry"/>
                </mxCell>
                <mxCell id="101" value="上报消息队列" style="whiteSpace=wrap;html=1;fontSize=15;strokeWidth=2;fillColor=#f5f5f5;fontColor=#333333;strokeColor=#666666;" parent="1" vertex="1">
                    <mxGeometry x="1865" y="754" width="120" height="60" as="geometry"/>
                </mxCell>
                <mxCell id="105" value="" style="endArrow=none;html=1;fontSize=15;strokeWidth=2;entryX=1;entryY=0.5;entryDx=0;entryDy=0;fillColor=#f5f5f5;strokeColor=#666666;" parent="1" target="94" edge="1">
                    <mxGeometry width="50" height="50" relative="1" as="geometry">
                        <mxPoint x="1925" y="930" as="sourcePoint"/>
                        <mxPoint x="1850" y="570" as="targetPoint"/>
                        <Array as="points">
                            <mxPoint x="2110" y="930"/>
                            <mxPoint x="2110" y="288"/>
                        </Array>
                    </mxGeometry>
                </mxCell>
                <mxCell id="106" value="" style="endArrow=none;html=1;fontSize=15;strokeWidth=2;entryX=1;entryY=0.5;entryDx=0;entryDy=0;exitX=0;exitY=0.5;exitDx=0;exitDy=0;fillColor=#f5f5f5;strokeColor=#666666;" parent="1" source="95" target="95" edge="1">
                    <mxGeometry width="50" height="50" relative="1" as="geometry">
                        <mxPoint x="1830" y="409" as="sourcePoint"/>
                        <mxPoint x="1850" y="570" as="targetPoint"/>
                        <Array as="points">
                            <mxPoint x="1780" y="409"/>
                            <mxPoint x="1780" y="409"/>
                            <mxPoint x="1780" y="900"/>
                            <mxPoint x="2070" y="900"/>
                            <mxPoint x="2070" y="409"/>
                        </Array>
                    </mxGeometry>
                </mxCell>
                <mxCell id="107" value="" style="endArrow=none;html=1;fontSize=15;strokeWidth=2;entryX=1;entryY=0.5;entryDx=0;entryDy=0;exitX=0;exitY=0.5;exitDx=0;exitDy=0;fillColor=#f5f5f5;strokeColor=#666666;" parent="1" source="99" target="99" edge="1">
                    <mxGeometry width="50" height="50" relative="1" as="geometry">
                        <mxPoint x="1800" y="620" as="sourcePoint"/>
                        <mxPoint x="1850" y="570" as="targetPoint"/>
                        <Array as="points">
                            <mxPoint x="1800" y="630"/>
                            <mxPoint x="1800" y="880"/>
                            <mxPoint x="2050" y="880"/>
                            <mxPoint x="2050" y="630"/>
                        </Array>
                    </mxGeometry>
                </mxCell>
                <mxCell id="109" value="" style="ellipse;whiteSpace=wrap;html=1;aspect=fixed;fontSize=15;strokeWidth=2;fillColor=#f5f5f5;fontColor=#333333;strokeColor=#666666;" parent="1" vertex="1">
                    <mxGeometry x="1897.5" y="910" width="50" height="50" as="geometry"/>
                </mxCell>
                <mxCell id="110" value="线程结束" style="text;html=1;align=center;verticalAlign=middle;resizable=0;points=[];autosize=1;strokeColor=#666666;fillColor=#f5f5f5;fontSize=15;fontColor=#333333;" parent="1" vertex="1">
                    <mxGeometry x="1947.5" y="940" width="80" height="20" as="geometry"/>
                </mxCell>
                <mxCell id="111" value="是" style="text;html=1;align=center;verticalAlign=middle;resizable=0;points=[];autosize=1;strokeColor=#666666;fillColor=#f5f5f5;fontSize=15;fontColor=#333333;" parent="1" vertex="1">
                    <mxGeometry x="1945" y="670" width="30" height="20" as="geometry"/>
                </mxCell>
                <mxCell id="112" value="否" style="text;html=1;align=center;verticalAlign=middle;resizable=0;points=[];autosize=1;strokeColor=#666666;fillColor=#f5f5f5;fontSize=15;fontColor=#333333;" parent="1" vertex="1">
                    <mxGeometry x="2015" y="600" width="30" height="20" as="geometry"/>
                </mxCell>
                <mxCell id="113" value="是" style="text;html=1;align=center;verticalAlign=middle;resizable=0;points=[];autosize=1;strokeColor=#666666;fillColor=#f5f5f5;fontSize=15;fontColor=#333333;" parent="1" vertex="1">
                    <mxGeometry x="1925" y="450" width="30" height="20" as="geometry"/>
                </mxCell>
                <mxCell id="114" value="否" style="text;html=1;align=center;verticalAlign=middle;resizable=0;points=[];autosize=1;strokeColor=#666666;fillColor=#f5f5f5;fontSize=15;fontColor=#333333;" parent="1" vertex="1">
                    <mxGeometry x="2005" y="380" width="30" height="20" as="geometry"/>
                </mxCell>
                <mxCell id="115" value="是" style="text;html=1;align=center;verticalAlign=middle;resizable=0;points=[];autosize=1;strokeColor=#666666;fillColor=#f5f5f5;fontSize=15;fontColor=#333333;" parent="1" vertex="1">
                    <mxGeometry x="1930" y="330" width="30" height="20" as="geometry"/>
                </mxCell>
                <mxCell id="116" value="否" style="text;html=1;align=center;verticalAlign=middle;resizable=0;points=[];autosize=1;strokeColor=#666666;fillColor=#f5f5f5;fontSize=15;fontColor=#333333;" parent="1" vertex="1">
                    <mxGeometry x="2005" y="260" width="30" height="20" as="geometry"/>
                </mxCell>
                <mxCell id="117" value="handle_thread" style="text;html=1;align=center;verticalAlign=middle;resizable=0;points=[];autosize=1;strokeColor=#666666;fillColor=#f5f5f5;fontSize=15;fontColor=#333333;" parent="1" vertex="1">
                    <mxGeometry x="1940" y="220" width="106" height="22" as="geometry"/>
                </mxCell>
                <mxCell id="120" value="" style="edgeStyle=none;html=1;fontSize=15;strokeWidth=2;fillColor=#f5f5f5;strokeColor=#666666;" parent="1" source="118" edge="1">
                    <mxGeometry relative="1" as="geometry">
                        <mxPoint x="2252" y="383" as="targetPoint"/>
                    </mxGeometry>
                </mxCell>
                <mxCell id="118" value="循环开始？" style="rhombus;whiteSpace=wrap;html=1;fontSize=15;strokeWidth=2;fillColor=#f5f5f5;fontColor=#333333;strokeColor=#666666;" parent="1" vertex="1">
                    <mxGeometry x="2167" y="248" width="170" height="90" as="geometry"/>
                </mxCell>
                <mxCell id="123" value="" style="edgeStyle=none;html=1;fontSize=15;strokeWidth=2;fillColor=#f5f5f5;strokeColor=#666666;" parent="1" source="121" target="122" edge="1">
                    <mxGeometry relative="1" as="geometry"/>
                </mxCell>
                <mxCell id="121" value="w_fifo有无数据？" style="rhombus;whiteSpace=wrap;html=1;fontSize=15;strokeWidth=2;fillColor=#f5f5f5;fontColor=#333333;strokeColor=#666666;" parent="1" vertex="1">
                    <mxGeometry x="2157" y="383" width="190" height="80" as="geometry"/>
                </mxCell>
                <mxCell id="122" value="读取已打包数据，发送到串口" style="whiteSpace=wrap;html=1;fontSize=15;strokeWidth=2;fillColor=#f5f5f5;fontColor=#333333;strokeColor=#666666;" parent="1" vertex="1">
                    <mxGeometry x="2192" y="513" width="120" height="60" as="geometry"/>
                </mxCell>
                <mxCell id="124" value="" style="endArrow=none;html=1;fontSize=15;strokeWidth=2;entryX=1;entryY=0.5;entryDx=0;entryDy=0;fillColor=#f5f5f5;strokeColor=#666666;" parent="1" target="118" edge="1">
                    <mxGeometry width="50" height="50" relative="1" as="geometry">
                        <mxPoint x="2252" y="645" as="sourcePoint"/>
                        <mxPoint x="2217" y="565" as="targetPoint"/>
                        <Array as="points">
                            <mxPoint x="2387" y="645"/>
                            <mxPoint x="2387" y="293"/>
                        </Array>
                    </mxGeometry>
                </mxCell>
                <mxCell id="125" value="" style="endArrow=none;html=1;fontSize=15;strokeWidth=2;entryX=1;entryY=0.5;entryDx=0;entryDy=0;exitX=0;exitY=0.5;exitDx=0;exitDy=0;fillColor=#f5f5f5;strokeColor=#666666;" parent="1" source="121" target="121" edge="1">
                    <mxGeometry width="50" height="50" relative="1" as="geometry">
                        <mxPoint x="2252" y="615" as="sourcePoint"/>
                        <mxPoint x="2217" y="565" as="targetPoint"/>
                        <Array as="points">
                            <mxPoint x="2137" y="423"/>
                            <mxPoint x="2137" y="605"/>
                            <mxPoint x="2157" y="605"/>
                            <mxPoint x="2367" y="605"/>
                            <mxPoint x="2367" y="423"/>
                        </Array>
                    </mxGeometry>
                </mxCell>
                <mxCell id="126" value="" style="endArrow=none;html=1;fontSize=15;strokeWidth=2;entryX=0.5;entryY=1;entryDx=0;entryDy=0;fillColor=#f5f5f5;strokeColor=#666666;" parent="1" target="122" edge="1">
                    <mxGeometry width="50" height="50" relative="1" as="geometry">
                        <mxPoint x="2252" y="605" as="sourcePoint"/>
                        <mxPoint x="2217" y="565" as="targetPoint"/>
                    </mxGeometry>
                </mxCell>
                <mxCell id="127" value="" style="ellipse;whiteSpace=wrap;html=1;aspect=fixed;fontSize=15;strokeWidth=2;fillColor=#f5f5f5;fontColor=#333333;strokeColor=#666666;" parent="1" vertex="1">
                    <mxGeometry x="2227" y="625" width="50" height="50" as="geometry"/>
                </mxCell>
                <mxCell id="128" value="线程结束" style="text;html=1;align=center;verticalAlign=middle;resizable=0;points=[];autosize=1;strokeColor=#666666;fillColor=#f5f5f5;fontSize=15;fontColor=#333333;" parent="1" vertex="1">
                    <mxGeometry x="2277" y="655" width="80" height="20" as="geometry"/>
                </mxCell>
                <mxCell id="129" value="是" style="text;html=1;align=center;verticalAlign=middle;resizable=0;points=[];autosize=1;strokeColor=#666666;fillColor=#f5f5f5;fontSize=15;fontColor=#333333;" parent="1" vertex="1">
                    <mxGeometry x="2262" y="335" width="30" height="20" as="geometry"/>
                </mxCell>
                <mxCell id="130" value="是" style="text;html=1;align=center;verticalAlign=middle;resizable=0;points=[];autosize=1;strokeColor=#666666;fillColor=#f5f5f5;fontSize=15;fontColor=#333333;" parent="1" vertex="1">
                    <mxGeometry x="2257" y="463" width="30" height="20" as="geometry"/>
                </mxCell>
                <mxCell id="131" value="否" style="text;html=1;align=center;verticalAlign=middle;resizable=0;points=[];autosize=1;strokeColor=#666666;fillColor=#f5f5f5;fontSize=15;fontColor=#333333;" parent="1" vertex="1">
                    <mxGeometry x="2342" y="395" width="30" height="20" as="geometry"/>
                </mxCell>
                <mxCell id="132" value="否" style="text;html=1;align=center;verticalAlign=middle;resizable=0;points=[];autosize=1;strokeColor=#666666;fillColor=#f5f5f5;fontSize=15;fontColor=#333333;" parent="1" vertex="1">
                    <mxGeometry x="2352" y="265" width="30" height="20" as="geometry"/>
                </mxCell>
                <mxCell id="133" value="send_thread" style="text;html=1;align=center;verticalAlign=middle;resizable=0;points=[];autosize=1;strokeColor=#666666;fillColor=#f5f5f5;fontSize=15;fontColor=#333333;" parent="1" vertex="1">
                    <mxGeometry x="2260" y="220" width="100" height="20" as="geometry"/>
                </mxCell>
                <mxCell id="134" value="控制程序" style="rhombus;whiteSpace=wrap;html=1;fontSize=15;strokeWidth=2;fillColor=#f5f5f5;fontColor=#333333;strokeColor=#666666;" parent="1" vertex="1">
                    <mxGeometry x="170" y="721" width="130" height="80" as="geometry"/>
                </mxCell>
                <mxCell id="135" value="控制网络" style="rhombus;whiteSpace=wrap;html=1;fontSize=15;strokeWidth=2;fillColor=#f5f5f5;fontColor=#333333;strokeColor=#666666;" parent="1" vertex="1">
                    <mxGeometry x="170" y="621" width="130" height="80" as="geometry"/>
                </mxCell>
                <mxCell id="146" value="" style="endArrow=none;html=1;strokeWidth=2;entryX=0.5;entryY=1;entryDx=0;entryDy=0;fillColor=#f5f5f5;strokeColor=#666666;" parent="1" target="157" edge="1">
                    <mxGeometry width="50" height="50" relative="1" as="geometry">
                        <mxPoint x="840" y="230" as="sourcePoint"/>
                        <mxPoint x="840" y="170" as="targetPoint"/>
                    </mxGeometry>
                </mxCell>
                <mxCell id="148" value="" style="endArrow=none;html=1;strokeWidth=2;exitX=0.5;exitY=0;exitDx=0;exitDy=0;entryX=0.02;entryY=0.66;entryDx=0;entryDy=0;entryPerimeter=0;fillColor=#f5f5f5;strokeColor=#666666;" parent="1" source="74" target="151" edge="1">
                    <mxGeometry width="50" height="50" relative="1" as="geometry">
                        <mxPoint x="1890" y="260" as="sourcePoint"/>
                        <mxPoint x="1780" y="190" as="targetPoint"/>
                        <Array as="points">
                            <mxPoint x="1720" y="240"/>
                        </Array>
                    </mxGeometry>
                </mxCell>
                <mxCell id="150" value="" style="endArrow=none;html=1;strokeWidth=2;entryX=0.5;entryY=0;entryDx=0;entryDy=0;fillColor=#f5f5f5;strokeColor=#666666;" parent="1" target="118" edge="1">
                    <mxGeometry width="50" height="50" relative="1" as="geometry">
                        <mxPoint x="1840" y="200" as="sourcePoint"/>
                        <mxPoint x="1940" y="210" as="targetPoint"/>
                        <Array as="points">
                            <mxPoint x="2160" y="205"/>
                        </Array>
                    </mxGeometry>
                </mxCell>
                <mxCell id="151" value="" style="ellipse;whiteSpace=wrap;html=1;aspect=fixed;fillColor=#f5f5f5;fontColor=#333333;strokeColor=#666666;" parent="1" vertex="1">
                    <mxGeometry x="1800" y="160" width="50" height="50" as="geometry"/>
                </mxCell>
                <mxCell id="152" value="" style="endArrow=none;html=1;strokeWidth=2;exitX=0.5;exitY=0;exitDx=0;exitDy=0;fillColor=#f5f5f5;strokeColor=#666666;" parent="1" source="94" target="151" edge="1">
                    <mxGeometry width="50" height="50" relative="1" as="geometry">
                        <mxPoint x="1925" y="245" as="sourcePoint"/>
                        <mxPoint x="1780" y="190" as="targetPoint"/>
                        <Array as="points">
                            <mxPoint x="1825" y="240"/>
                        </Array>
                    </mxGeometry>
                </mxCell>
                <mxCell id="153" value="模块启动" style="text;html=1;align=center;verticalAlign=middle;resizable=0;points=[];autosize=1;strokeColor=#666666;fillColor=#f5f5f5;fontSize=15;fontColor=#333333;" parent="1" vertex="1">
                    <mxGeometry x="1862" y="159" width="80" height="20" as="geometry"/>
                </mxCell>
                <mxCell id="154" value="" style="ellipse;whiteSpace=wrap;html=1;aspect=fixed;fontSize=15;fillColor=#f5f5f5;fontColor=#333333;strokeColor=#666666;" parent="1" vertex="1">
                    <mxGeometry x="210" y="6" width="50" height="50" as="geometry"/>
                </mxCell>
                <mxCell id="155" value="" style="endArrow=none;html=1;strokeWidth=2;exitX=0.5;exitY=0;exitDx=0;exitDy=0;startArrow=none;fillColor=#f5f5f5;strokeColor=#666666;" parent="1" source="159" target="154" edge="1">
                    <mxGeometry width="50" height="50" relative="1" as="geometry">
                        <mxPoint x="235" y="186" as="sourcePoint"/>
                        <mxPoint x="235" y="136" as="targetPoint"/>
                    </mxGeometry>
                </mxCell>
                <mxCell id="156" value="模块启动" style="text;html=1;align=center;verticalAlign=middle;resizable=0;points=[];autosize=1;strokeColor=#666666;fillColor=#f5f5f5;fontSize=15;fontColor=#333333;" parent="1" vertex="1">
                    <mxGeometry x="120" y="26" width="80" height="20" as="geometry"/>
                </mxCell>
                <mxCell id="157" value="" style="ellipse;whiteSpace=wrap;html=1;aspect=fixed;fontSize=15;fillColor=#f5f5f5;fontColor=#333333;strokeColor=#666666;" parent="1" vertex="1">
                    <mxGeometry x="814" y="109" width="50" height="50" as="geometry"/>
                </mxCell>
                <mxCell id="158" value="模块启动" style="text;html=1;align=center;verticalAlign=middle;resizable=0;points=[];autosize=1;strokeColor=#666666;fillColor=#f5f5f5;fontSize=15;fontColor=#333333;" parent="1" vertex="1">
                    <mxGeometry x="730" y="115" width="80" height="20" as="geometry"/>
                </mxCell>
                <mxCell id="159" value="循环开始？" style="rhombus;whiteSpace=wrap;html=1;fontSize=15;fillColor=#f5f5f5;strokeWidth=2;fontColor=#333333;strokeColor=#666666;" parent="1" vertex="1">
                    <mxGeometry x="130" y="76" width="210" height="80" as="geometry"/>
                </mxCell>
                <mxCell id="160" value="" style="endArrow=none;html=1;strokeWidth=2;exitX=0.5;exitY=0;exitDx=0;exitDy=0;fillColor=#f5f5f5;strokeColor=#666666;" parent="1" source="3" target="159" edge="1">
                    <mxGeometry width="50" height="50" relative="1" as="geometry">
                        <mxPoint x="235" y="186" as="sourcePoint"/>
                        <mxPoint x="235" y="56" as="targetPoint"/>
                    </mxGeometry>
                </mxCell>
                <mxCell id="161" value="是" style="text;html=1;align=center;verticalAlign=middle;resizable=0;points=[];autosize=1;strokeColor=#666666;fillColor=#f5f5f5;fontSize=15;fontColor=#333333;" parent="1" vertex="1">
                    <mxGeometry x="245" y="156" width="30" height="20" as="geometry"/>
                </mxCell>
                <mxCell id="162" value="否" style="text;html=1;align=center;verticalAlign=middle;resizable=0;points=[];autosize=1;strokeColor=#666666;fillColor=#f5f5f5;fontSize=15;fontColor=#333333;" parent="1" vertex="1">
                    <mxGeometry x="335" y="86" width="30" height="20" as="geometry"/>
                </mxCell>
                <mxCell id="163" value="" style="endArrow=none;html=1;fontSize=15;strokeWidth=2;entryX=1;entryY=0.5;entryDx=0;entryDy=0;fillColor=#f5f5f5;strokeColor=#666666;" parent="1" target="159" edge="1">
                    <mxGeometry width="50" height="50" relative="1" as="geometry">
                        <mxPoint x="235" y="876" as="sourcePoint"/>
                        <mxPoint x="620" y="376" as="targetPoint"/>
                        <Array as="points">
                            <mxPoint x="560" y="876"/>
                            <mxPoint x="560" y="116"/>
                        </Array>
                    </mxGeometry>
                </mxCell>
                <mxCell id="164" value="" style="ellipse;whiteSpace=wrap;html=1;aspect=fixed;fontSize=15;strokeWidth=2;fillColor=#f5f5f5;fontColor=#333333;strokeColor=#666666;" parent="1" vertex="1">
                    <mxGeometry x="210" y="856" width="50" height="50" as="geometry"/>
                </mxCell>
                <mxCell id="165" value="模块终止" style="text;html=1;align=center;verticalAlign=middle;resizable=0;points=[];autosize=1;strokeColor=#666666;fillColor=#f5f5f5;fontSize=15;fontColor=#333333;" parent="1" vertex="1">
                    <mxGeometry x="250" y="886" width="80" height="20" as="geometry"/>
                </mxCell>
                <mxCell id="167" value="" style="ellipse;whiteSpace=wrap;html=1;aspect=fixed;fontSize=15;strokeWidth=2;fillColor=#f5f5f5;fontColor=#333333;strokeColor=#666666;" parent="1" vertex="1">
                    <mxGeometry x="800" y="670" width="50" height="50" as="geometry"/>
                </mxCell>
                <mxCell id="169" value="模块终止" style="text;html=1;align=center;verticalAlign=middle;resizable=0;points=[];autosize=1;strokeColor=#666666;fillColor=#f5f5f5;fontSize=15;fontColor=#333333;" parent="1" vertex="1">
                    <mxGeometry x="850" y="710" width="80" height="20" as="geometry"/>
                </mxCell>
                <mxCell id="170" value="app模块" style="text;html=1;strokeColor=#666666;fillColor=#f5f5f5;align=center;verticalAlign=middle;whiteSpace=wrap;rounded=0;fontSize=21;fontStyle=1;fontColor=#333333;" parent="1" vertex="1">
                    <mxGeometry x="274" y="6" width="300" height="70" as="geometry"/>
                </mxCell>
                <mxCell id="171" value="led_app模块" style="text;html=1;strokeColor=#666666;fillColor=#f5f5f5;align=center;verticalAlign=middle;whiteSpace=wrap;rounded=0;fontSize=21;fontStyle=1;fontColor=#333333;" parent="1" vertex="1">
                    <mxGeometry x="867" y="115" width="300" height="70" as="geometry"/>
                </mxCell>
                <mxCell id="172" value="uart_app模块" style="text;html=1;strokeColor=#666666;fillColor=#f5f5f5;align=center;verticalAlign=middle;whiteSpace=wrap;rounded=0;fontSize=21;fontStyle=1;fontColor=#333333;" parent="1" vertex="1">
                    <mxGeometry x="1479" y="119" width="300" height="70" as="geometry"/>
                </mxCell>
                <mxCell id="173" value="" style="endArrow=none;html=1;strokeWidth=2;entryX=0.5;entryY=1;entryDx=0;entryDy=0;fillColor=#f5f5f5;strokeColor=#666666;" parent="1" target="101" edge="1">
                    <mxGeometry width="50" height="50" relative="1" as="geometry">
                        <mxPoint x="1925" y="878" as="sourcePoint"/>
                        <mxPoint x="2231" y="542" as="targetPoint"/>
                    </mxGeometry>
                </mxCell>
            </root>
        </mxGraphModel>
    </diagram>
</mxfile>